{
  "accessors": [
    {
      "bufferView": 2,
      "componentType": 5126,
      "count": 25516,
      "max": [
        3.1969175338745117,
        2.811711311340332,
        3.0362548828125
      ],
      "min": [
        -3.1969175338745117,
        -3.7317111492156982,
        -3.0362548828125
      ],
      "type": "VEC3"
    },
    {
      "bufferView": 2,
      "byteOffset": 306192,
      "componentType": 5126,
      "count": 25516,
      "max": [
        0.99999076128005981,
        0.99993526935577393,
        0.99998867511749268
      ],
      "min": [
        -0.99981522560119629,
        -0.9999656081199646,
        -0.99995934963226318
      ],
      "type": "VEC3"
    },
    {
      "bufferView": 3,
      "componentType": 5126,
      "count": 25516,
      "max": [
        0.99997395277023315,
        0.99962085485458374,
        0.9999774694442749,
        1
      ],
      "min": [
        -0.9999043345451355,
        -0.99993115663528442,
        -0.99998587369918823,
        -1
      ],
      "type": "VEC4"
    },
    {
      "bufferView": 1,
      "componentType": 5126,
      "count": 25516,
      "max": [
        0.99703377485275269,
        0.98611390590667725
      ],
      "min": [
        0.011721406131982803,
        0.0040140203200280666
      ],
      "type": "VEC2"
    },
    {
      "bufferView": 1,
      "byteOffset": 204128,
      "componentType": 5126,
      "count": 25516,
      "max": [
        0.99703377485275269,
        0.98611390590667725
      ],
      "min": [
        0.011721406131982803,
        0.0040140203200280666
      ],
      "type": "VEC2"
    },
    {
      "bufferView": 0,
      "componentType": 5125,
      "count": 124764,
      "max": [
        25515
      ],
      "min": [
        0
      ],
      "type": "SCALAR"
    }
  ],
  "asset": {
    "extras": {
      "author": "Rodrigo Gelmi (https://sketchfab.com/rodrigogelmi)",
      "license": "CC-BY-4.0 (http://creativecommons.org/licenses/by/4.0/)",
      "source": "https://sketchfab.com/3d-models/raspberry-0033322379a24798a6875a5cb2de54f5",
      "title": "Raspberry"
    },
    "generator": "Sketchfab-8.56.0",
    "version": "2.0"
  },
  "bufferViews": [
    {
      "buffer": 0,
      "byteLength": 499056,
      "byteOffset": 0,
      "name": "floatBufferViews",
      "target": 34963
    },
    {
      "buffer": 0,
      "byteLength": 408256,
      "byteOffset": 499056,
      "byteStride": 8,
      "name": "floatBufferViews",
      "target": 34962
    },
    {
      "buffer": 0,
      "byteLength": 612384,
      "byteOffset": 907312,
      "byteStride": 12,
      "name": "floatBufferViews",
      "target": 34962
    },
    {
      "buffer": 0,
      "byteLength": 408256,
      "byteOffset": 1519696,
      "byteStride": 16,
      "name": "floatBufferViews",
      "target": 34962
    }
  ],
  "buffers": [
    {
      "byteLength": 1927952,
      "uri": "scene.bin"
    }
  ],
  "images": [
    {
      "uri": "textures/raspberry_baseColor.jpeg"
    },
    {
      "uri": "textures/raspberry_normal.png"
    }
  ],
  "materials": [
    {
      "doubleSided": false,
      "emissiveFactor": [
        0,
        0,
        0
      ],
      "name": "raspberry",
      "normalTexture": {
        "index": 1,
        "scale": 0.85293429156862388,
        "texCoord": 0
      },
      "pbrMetallicRoughness": {
        "baseColorFactor": [
          1,
          1,
          1,
          1
        ],
        "baseColorTexture": {
          "index": 0,
          "texCoord": 0
        },
        "metallicFactor": 0.33611957268543008,
        "roughnessFactor": 0.56051748353793118
      }
    }
  ],
  "meshes": [
    {
      "name": "Mesh_raspberry_0",
      "primitives": [
        {
          "attributes": {
            "NORMAL": 1,
            "POSITION": 0,
            "TANGENT": 2,
            "TEXCOORD_0": 3,
            "TEXCOORD_1": 4
          },
          "indices": 5,
          "material": 0,
          "mode": 4
        }
      ]
    }
  ],
  "nodes": [
    {
      "children": [
        1
      ],
      "name": "RootNode (gltf orientation matrix)",
      "rotation": [
        -0.70710678118654746,
        -0,
        -0,
        0.70710678118654757
      ]
    },
    {
      "children": [
        2
      ],
      "name": "RootNode (model correction matrix)"
    },
    {
      "children": [
        3
      ],
      "matrix": [
        1,
        0,
        0,
        0,
        0,
        0,
        1,
        0,
        0,
        -1,
        0,
        0,
        0,
        0,
        0,
        1
      ],
      "name": "755c807aac2f4de594c3b0625e5fcc9e.fbx"
    },
    {
      "children": [
        4,
        6,
        8
      ],
      "name": "RootNode"
    },
    {
      "children": [
        5
      ],
      "name": "Mesh"
    },
    {
      "mesh": 0,
      "name": "Mesh_raspberry_0"
    },
    {
      "children": [
        7
      ],
      "matrix": [
        0,
        -0.087155742747658138,
        -0.99619469809174555,
        0,
        0,
        0.99619469809174555,
        -0.087155742747658138,
        0,
        1,
        0,
        0,
        0,
        0,
        75,
        400,
        1
      ],
      "name": "Camera"
    },
    {
      "name": ""
    },
    {
      "children": [
        9
      ],
      "matrix": [
        0.70710678118654757,
        5.5511151231257827e-17,
        0.70710678118654746,
        0,
        -0.61237243569579447,
        0.50000000000000011,
        0.61237243569579447,
        0,
        -0.35355339059327373,
        -0.8660254037844386,
        0.35355339059327395,
        0,
        -200,
        200,
        200,
        1
      ],
      "name": "Directional Light"
    },
    {
      "children": [
        10
      ],
      "matrix": [
        1,
        0,
        0,
        0,
        0,
        2.2204460492503131e-16,
        1,
        0,
        0,
        -1,
        2.2204460492503131e-16,
        0,
        0,
        0,
        0,
        1
      ],
      "name": ""
    },
    {
      "name": ""
    }
  ],
  "samplers": [
    {
      "magFilter": 9729,
      "minFilter": 9987,
      "wrapS": 10497,
      "wrapT": 10497
    }
  ],
  "scene": 0,
  "scenes": [
    {
      "name": "OSG_Scene",
      "nodes": [
        0
      ]
    }
  ],
  "textures": [
    {
      "sampler": 0,
      "source": 0
    },
    {
      "sampler": 0,
      "source": 1
    }
  ]
}

