{
  "accessors": [
    {
      "bufferView": 2,
      "componentType": 5126,
      "count": 65532,
      "max": [
        0.5065615177154541,
        0.43073141574859619,
        0.41574731469154358
      ],
      "min": [
        -0.46092581748962402,
        -0.42867162823677063,
        -0.42331260442733765
      ],
      "type": "VEC3"
    },
    {
      "bufferView": 2,
      "byteOffset": 786384,
      "componentType": 5126,
      "count": 65532,
      "max": [
        0.93704348802566528,
        0.99992907047271729,
        0.99997401237487793
      ],
      "min": [
        -0.98819053173065186,
        -0.99996829032897949,
        -0.99999088048934937
      ],
      "type": "VEC3"
    },
    {
      "bufferView": 1,
      "componentType": 5126,
      "count": 65532,
      "max": [
        0.73940300941467285,
        0.99814397096633911
      ],
      "min": [
        0.0018990000244230032,
        0.45557498931884766
      ],
      "type": "VEC2"
    },
    {
      "bufferView": 0,
      "componentType": 5125,
      "count": 65532,
      "max": [
        65531
      ],
      "min": [
        0
      ],
      "type": "SCALAR"
    },
    {
      "bufferView": 2,
      "byteOffset": 1572768,
      "componentType": 5126,
      "count": 65532,
      "max": [
        0.53862839937210083,
        0.42806407809257507,
        0.40211650729179382
      ],
      "min": [
        -0.56293720006942749,
        -0.42588365077972412,
        -0.41621896624565125
      ],
      "type": "VEC3"
    },
    {
      "bufferView": 2,
      "byteOffset": 2359152,
      "componentType": 5126,
      "count": 65532,
      "max": [
        0.99776118993759155,
        0.99576133489608765,
        0.96620798110961914
      ],
      "min": [
        -0.99944907426834106,
        -0.99663287401199341,
        -0.99735754728317261
      ],
      "type": "VEC3"
    },
    {
      "bufferView": 1,
      "byteOffset": 524256,
      "componentType": 5126,
      "count": 65532,
      "max": [
        0.99394786357879639,
        0.99810552597045898
      ],
      "min": [
        0.0018469999777153134,
        0.00292599992826581
      ],
      "type": "VEC2"
    },
    {
      "bufferView": 0,
      "byteOffset": 262128,
      "componentType": 5125,
      "count": 65532,
      "max": [
        65531
      ],
      "min": [
        0
      ],
      "type": "SCALAR"
    },
    {
      "bufferView": 2,
      "byteOffset": 3145536,
      "componentType": 5126,
      "count": 65532,
      "max": [
        0.56657600402832031,
        0.43084785342216492,
        0.39213776588439941
      ],
      "min": [
        -0.56269210577011108,
        -0.42835241556167603,
        -0.42282667756080627
      ],
      "type": "VEC3"
    },
    {
      "bufferView": 2,
      "byteOffset": 3931920,
      "componentType": 5126,
      "count": 65532,
      "max": [
        0.99994653463363647,
        0.99933475255966187,
        0.99948537349700928
      ],
      "min": [
        -0.99986189603805542,
        -0.99928486347198486,
        -0.99999725818634033
      ],
      "type": "VEC3"
    },
    {
      "bufferView": 1,
      "byteOffset": 1048512,
      "componentType": 5126,
      "count": 65532,
      "max": [
        0.98909002542495728,
        0.99811798334121704
      ],
      "min": [
        0.11281300336122513,
        0.0048529999330639839
      ],
      "type": "VEC2"
    },
    {
      "bufferView": 0,
      "byteOffset": 524256,
      "componentType": 5125,
      "count": 65532,
      "max": [
        65531
      ],
      "min": [
        0
      ],
      "type": "SCALAR"
    },
    {
      "bufferView": 2,
      "byteOffset": 4718304,
      "componentType": 5126,
      "count": 32148,
      "max": [
        0.56657600402832031,
        0.42638817429542542,
        0.37901678681373596
      ],
      "min": [
        -0.57433110475540161,
        -0.42698529362678528,
        -0.4198668897151947
      ],
      "type": "VEC3"
    },
    {
      "bufferView": 2,
      "byteOffset": 5104080,
      "componentType": 5126,
      "count": 32148,
      "max": [
        0.9999886155128479,
        0.99745529890060425,
        0.99059432744979858
      ],
      "min": [
        -0.99990153312683105,
        -0.99543416500091553,
        -0.99969387054443359
      ],
      "type": "VEC3"
    },
    {
      "bufferView": 1,
      "byteOffset": 1572768,
      "componentType": 5126,
      "count": 32148,
      "max": [
        0.99748200178146362,
        0.99815702438354492
      ],
      "min": [
        0.1332859992980957,
        0.0025780000723898411
      ],
      "type": "VEC2"
    },
    {
      "bufferView": 0,
      "byteOffset": 786384,
      "componentType": 5125,
      "count": 32148,
      "max": [
        32147
      ],
      "min": [
        0
      ],
      "type": "SCALAR"
    }
  ],
  "asset": {
    "extras": {
      "author": "iacosta3994 (https://sketchfab.com/iacosta3994)",
      "license": "CC-BY-4.0 (http://creativecommons.org/licenses/by/4.0/)",
      "source": "https://sketchfab.com/3d-models/lemon-2e2d067b8a2845acb6f585c1c5eac840",
      "title": "Lemon"
    },
    "generator": "Sketchfab-8.48.0",
    "version": "2.0"
  },
  "bufferViews": [
    {
      "buffer": 0,
      "byteLength": 914976,
      "byteOffset": 0,
      "name": "floatBufferViews",
      "target": 34963
    },
    {
      "buffer": 0,
      "byteLength": 1829952,
      "byteOffset": 914976,
      "byteStride": 8,
      "name": "floatBufferViews",
      "target": 34962
    },
    {
      "buffer": 0,
      "byteLength": 5489856,
      "byteOffset": 2744928,
      "byteStride": 12,
      "name": "floatBufferViews",
      "target": 34962
    }
  ],
  "buffers": [
    {
      "byteLength": 8234784,
      "uri": "scene.bin"
    }
  ],
  "images": [
    {
      "uri": "textures/TextureAtlas_0_baseColor.png"
    }
  ],
  "materials": [
    {
      "doubleSided": false,
      "emissiveFactor": [
        0,
        0,
        0
      ],
      "name": "TextureAtlas_0",
      "pbrMetallicRoughness": {
        "baseColorFactor": [
          1,
          1,
          1,
          1
        ],
        "baseColorTexture": {
          "index": 0,
          "texCoord": 0
        },
        "metallicFactor": 0.11723333880548918,
        "roughnessFactor": 0.53676528707537596
      }
    }
  ],
  "meshes": [
    {
      "primitives": [
        {
          "attributes": {
            "NORMAL": 1,
            "POSITION": 0,
            "TEXCOORD_0": 2
          },
          "indices": 3,
          "material": 0,
          "mode": 4
        }
      ]
    },
    {
      "primitives": [
        {
          "attributes": {
            "NORMAL": 5,
            "POSITION": 4,
            "TEXCOORD_0": 6
          },
          "indices": 7,
          "material": 0,
          "mode": 4
        }
      ]
    },
    {
      "primitives": [
        {
          "attributes": {
            "NORMAL": 9,
            "POSITION": 8,
            "TEXCOORD_0": 10
          },
          "indices": 11,
          "material": 0,
          "mode": 4
        }
      ]
    },
    {
      "primitives": [
        {
          "attributes": {
            "NORMAL": 13,
            "POSITION": 12,
            "TEXCOORD_0": 14
          },
          "indices": 15,
          "material": 0,
          "mode": 4
        }
      ]
    }
  ],
  "nodes": [
    {
      "children": [
        1
      ],
      "name": "RootNode (gltf orientation matrix)",
      "rotation": [
        -0.70710678118654746,
        -0,
        -0,
        0.70710678118654757
      ]
    },
    {
      "children": [
        2
      ],
      "matrix": [
        -0.0050701256841421127,
        0.99998712539672852,
        8.6736173798840355e-19,
        0,
        0.99997413158416748,
        0.0050700600259006023,
        -0.0050973636098206043,
        0,
        -0.0050972979515790939,
        -2.5844276024145074e-05,
        -0.99998700618743896,
        0,
        -0.029724786058068275,
        0.030630523338913918,
        0.038583286106586456,
        1
      ],
      "name": "RootNode (model correction matrix)"
    },
    {
      "children": [
        3
      ],
      "name": "root"
    },
    {
      "children": [
        4
      ],
      "matrix": [
        1,
        0,
        0,
        0,
        0,
        2.2204460492503131e-16,
        1,
        0,
        0,
        -1,
        2.2204460492503131e-16,
        0,
        0,
        0,
        0,
        1
      ],
      "name": "GLTF_SceneRootNode"
    },
    {
      "children": [
        5,
        6,
        7,
        8
      ],
      "matrix": [
        3.1277258396148682,
        0,
        0,
        0,
        0,
        -5.2729515761601554e-07,
        3.1277258396148238,
        0,
        0,
        -3.1277258396148238,
        -5.2729515761601554e-07,
        0,
        -0.013453762978315353,
        0.0075041055679321289,
        -0.0081015825271606445,
        1
      ],
      "name": "texturedMesh_1"
    },
    {
      "mesh": 0,
      "name": ""
    },
    {
      "mesh": 1,
      "name": ""
    },
    {
      "mesh": 2,
      "name": ""
    },
    {
      "mesh": 3,
      "name": ""
    }
  ],
  "samplers": [
    {
      "magFilter": 9729,
      "minFilter": 9987,
      "wrapS": 10497,
      "wrapT": 10497
    }
  ],
  "scene": 0,
  "scenes": [
    {
      "name": "OSG_Scene",
      "nodes": [
        0
      ]
    }
  ],
  "textures": [
    {
      "sampler": 0,
      "source": 0
    }
  ]
}

