{
  "accessors": [
    {
      "bufferView": 2,
      "componentType": 5126,
      "count": 65532,
      "max": [
        1.9186047315597534,
        3.4814455509185791,
        1.9643816947937012
      ],
      "min": [
        -1.9710197448730469,
        -2.3674631118774414,
        -2.1021416187286377
      ],
      "type": "VEC3"
    },
    {
      "bufferView": 2,
      "byteOffset": 786384,
      "componentType": 5126,
      "count": 65532,
      "max": [
        0.99999171495437622,
        0.99999552965164185,
        0.99992698431015015
      ],
      "min": [
        -0.99999552965164185,
        -0.99995607137680054,
        -0.99995625019073486
      ],
      "type": "VEC3"
    },
    {
      "bufferView": 1,
      "componentType": 5126,
      "count": 65532,
      "max": [
        1.0353677272796631,
        0.98279106616973877
      ],
      "min": [
        -0.029872650280594826,
        -0.0018232056172564626
      ],
      "type": "VEC2"
    },
    {
      "bufferView": 0,
      "componentType": 5125,
      "count": 293670,
      "max": [
        65531
      ],
      "min": [
        0
      ],
      "type": "SCALAR"
    },
    {
      "bufferView": 2,
      "byteOffset": 1572768,
      "componentType": 5126,
      "count": 65532,
      "max": [
        1.9135723114013672,
        2.2774279117584229,
        1.9643816947937012
      ],
      "min": [
        -1.9686758518218994,
        -2.3678252696990967,
        -2.1021416187286377
      ],
      "type": "VEC3"
    },
    {
      "bufferView": 2,
      "byteOffset": 2359152,
      "componentType": 5126,
      "count": 65532,
      "max": [
        0.99998265504837036,
        0.9999854564666748,
        0.99992501735687256
      ],
      "min": [
        -0.99999552965164185,
        -0.99998658895492554,
        -0.99998635053634644
      ],
      "type": "VEC3"
    },
    {
      "bufferView": 1,
      "byteOffset": 524256,
      "componentType": 5126,
      "count": 65532,
      "max": [
        1.0240025520324707,
        0.98279106616973877
      ],
      "min": [
        -0.16505312919616699,
        -0.0017294222488999367
      ],
      "type": "VEC2"
    },
    {
      "bufferView": 0,
      "byteOffset": 1174680,
      "componentType": 5125,
      "count": 178455,
      "max": [
        65531
      ],
      "min": [
        0
      ],
      "type": "SCALAR"
    },
    {
      "bufferView": 2,
      "byteOffset": 3145536,
      "componentType": 5126,
      "count": 10659,
      "max": [
        1.9124683141708374,
        2.271061897277832,
        1.9541720151901245
      ],
      "min": [
        -1.9666086435317993,
        -2.3662197589874268,
        -2.0992445945739746
      ],
      "type": "VEC3"
    },
    {
      "bufferView": 2,
      "byteOffset": 3273444,
      "componentType": 5126,
      "count": 10659,
      "max": [
        0.9996650218963623,
        0.99997323751449585,
        0.9998699426651001
      ],
      "min": [
        -0.99974578619003296,
        -0.99999845027923584,
        -0.99996209144592285
      ],
      "type": "VEC3"
    },
    {
      "bufferView": 1,
      "byteOffset": 1048512,
      "componentType": 5126,
      "count": 10659,
      "max": [
        1.0297629833221436,
        0.98279106616973877
      ],
      "min": [
        -0.029872650280594826,
        0.0032071925234049559
      ],
      "type": "VEC2"
    },
    {
      "bufferView": 0,
      "byteOffset": 1888500,
      "componentType": 5125,
      "count": 13875,
      "max": [
        10658
      ],
      "min": [
        0
      ],
      "type": "SCALAR"
    },
    {
      "bufferView": 3,
      "componentType": 5126,
      "count": 150,
      "max": [
        4.9666666984558105
      ],
      "min": [
        0
      ],
      "type": "SCALAR"
    },
    {
      "bufferView": 4,
      "componentType": 5126,
      "count": 150,
      "max": [
        0,
        0,
        0
      ],
      "min": [
        0,
        0,
        0
      ],
      "type": "VEC3"
    },
    {
      "bufferView": 3,
      "byteOffset": 600,
      "componentType": 5126,
      "count": 150,
      "max": [
        4.9666666984558105
      ],
      "min": [
        0
      ],
      "type": "SCALAR"
    },
    {
      "bufferView": 4,
      "byteOffset": 1800,
      "componentType": 5126,
      "count": 150,
      "max": [
        1,
        1,
        1
      ],
      "min": [
        1,
        1,
        1
      ],
      "type": "VEC3"
    },
    {
      "bufferView": 3,
      "byteOffset": 1200,
      "componentType": 5126,
      "count": 150,
      "max": [
        4.9666666984558105
      ],
      "min": [
        0
      ],
      "type": "SCALAR"
    },
    {
      "bufferView": 5,
      "componentType": 5126,
      "count": 150,
      "max": [
        0,
        0,
        0,
        1
      ],
      "min": [
        0,
        0,
        0,
        1
      ],
      "type": "VEC4"
    },
    {
      "bufferView": 3,
      "byteOffset": 1800,
      "componentType": 5126,
      "count": 150,
      "max": [
        4.9666666984558105
      ],
      "min": [
        0
      ],
      "type": "SCALAR"
    },
    {
      "bufferView": 4,
      "byteOffset": 3600,
      "componentType": 5126,
      "count": 150,
      "max": [
        0,
        0,
        0
      ],
      "min": [
        0,
        0,
        0
      ],
      "type": "VEC3"
    },
    {
      "bufferView": 3,
      "byteOffset": 2400,
      "componentType": 5126,
      "count": 150,
      "max": [
        4.9666666984558105
      ],
      "min": [
        0
      ],
      "type": "SCALAR"
    },
    {
      "bufferView": 4,
      "byteOffset": 5400,
      "componentType": 5126,
      "count": 150,
      "max": [
        1,
        1,
        1
      ],
      "min": [
        1,
        1,
        1
      ],
      "type": "VEC3"
    },
    {
      "bufferView": 3,
      "byteOffset": 3000,
      "componentType": 5126,
      "count": 150,
      "max": [
        4.9666666984558105
      ],
      "min": [
        0
      ],
      "type": "SCALAR"
    },
    {
      "bufferView": 5,
      "byteOffset": 2400,
      "componentType": 5126,
      "count": 150,
      "max": [
        0,
        0,
        0,
        1
      ],
      "min": [
        0,
        0,
        0,
        1
      ],
      "type": "VEC4"
    },
    {
      "bufferView": 3,
      "byteOffset": 3600,
      "componentType": 5126,
      "count": 150,
      "max": [
        4.9666666984558105
      ],
      "min": [
        0
      ],
      "type": "SCALAR"
    },
    {
      "bufferView": 4,
      "byteOffset": 7200,
      "componentType": 5126,
      "count": 150,
      "max": [
        0.77574694156646729,
        5.0656108856201172,
        13.868541717529297
      ],
      "min": [
        0.35756313800811768,
        3.2261834144592285,
        13.409460067749023
      ],
      "type": "VEC3"
    },
    {
      "bufferView": 3,
      "byteOffset": 4200,
      "componentType": 5126,
      "count": 150,
      "max": [
        4.9666666984558105
      ],
      "min": [
        0
      ],
      "type": "SCALAR"
    },
    {
      "bufferView": 4,
      "byteOffset": 9000,
      "componentType": 5126,
      "count": 150,
      "max": [
        1,
        1,
        1
      ],
      "min": [
        1,
        1,
        1
      ],
      "type": "VEC3"
    },
    {
      "bufferView": 3,
      "byteOffset": 4800,
      "componentType": 5126,
      "count": 150,
      "max": [
        4.9666666984558105
      ],
      "min": [
        0
      ],
      "type": "SCALAR"
    },
    {
      "bufferView": 5,
      "byteOffset": 4800,
      "componentType": 5126,
      "count": 150,
      "max": [
        -0.079109698534011841,
        0.71901726722717285,
        -0.062249459326267242,
        0.69940221309661865
      ],
      "min": [
        -0.11518402397632599,
        0.70760387182235718,
        -0.11507011950016022,
        0.67565202713012695
      ],
      "type": "VEC4"
    },
    {
      "bufferView": 3,
      "byteOffset": 5400,
      "componentType": 5126,
      "count": 150,
      "max": [
        4.9666666984558105
      ],
      "min": [
        0
      ],
      "type": "SCALAR"
    },
    {
      "bufferView": 4,
      "byteOffset": 10800,
      "componentType": 5126,
      "count": 150,
      "max": [
        0,
        0,
        0
      ],
      "min": [
        0,
        0,
        0
      ],
      "type": "VEC3"
    },
    {
      "bufferView": 3,
      "byteOffset": 6000,
      "componentType": 5126,
      "count": 150,
      "max": [
        4.9666666984558105
      ],
      "min": [
        0
      ],
      "type": "SCALAR"
    },
    {
      "bufferView": 4,
      "byteOffset": 12600,
      "componentType": 5126,
      "count": 150,
      "max": [
        1,
        1,
        1
      ],
      "min": [
        1,
        1,
        1
      ],
      "type": "VEC3"
    },
    {
      "bufferView": 3,
      "byteOffset": 6600,
      "componentType": 5126,
      "count": 150,
      "max": [
        4.9666666984558105
      ],
      "min": [
        0
      ],
      "type": "SCALAR"
    },
    {
      "bufferView": 5,
      "byteOffset": 7200,
      "componentType": 5126,
      "count": 150,
      "max": [
        0,
        0,
        0,
        1
      ],
      "min": [
        0,
        0,
        0,
        1
      ],
      "type": "VEC4"
    },
    {
      "bufferView": 3,
      "byteOffset": 7200,
      "componentType": 5126,
      "count": 150,
      "max": [
        4.9666666984558105
      ],
      "min": [
        0
      ],
      "type": "SCALAR"
    },
    {
      "bufferView": 4,
      "byteOffset": 14400,
      "componentType": 5126,
      "count": 150,
      "max": [
        -200,
        200,
        200
      ],
      "min": [
        -200,
        200,
        200
      ],
      "type": "VEC3"
    },
    {
      "bufferView": 3,
      "byteOffset": 7800,
      "componentType": 5126,
      "count": 150,
      "max": [
        4.9666666984558105
      ],
      "min": [
        0
      ],
      "type": "SCALAR"
    },
    {
      "bufferView": 4,
      "byteOffset": 16200,
      "componentType": 5126,
      "count": 150,
      "max": [
        1,
        1,
        1
      ],
      "min": [
        1,
        1,
        1
      ],
      "type": "VEC3"
    },
    {
      "bufferView": 3,
      "byteOffset": 8400,
      "componentType": 5126,
      "count": 150,
      "max": [
        4.9666666984558105
      ],
      "min": [
        0
      ],
      "type": "SCALAR"
    },
    {
      "bufferView": 5,
      "byteOffset": 9600,
      "componentType": 5126,
      "count": 150,
      "max": [
        0.46193975210189819,
        -0.33141356706619263,
        0.19134171307086945,
        0.80010312795639038
      ],
      "min": [
        0.46193975210189819,
        -0.33141356706619263,
        0.19134171307086945,
        0.80010312795639038
      ],
      "type": "VEC4"
    },
    {
      "bufferView": 3,
      "byteOffset": 9000,
      "componentType": 5126,
      "count": 1,
      "max": [
        0
      ],
      "min": [
        0
      ],
      "type": "SCALAR"
    },
    {
      "bufferView": 4,
      "byteOffset": 18000,
      "componentType": 5126,
      "count": 1,
      "max": [
        0,
        0,
        0
      ],
      "min": [
        0,
        0,
        0
      ],
      "type": "VEC3"
    },
    {
      "bufferView": 3,
      "byteOffset": 9004,
      "componentType": 5126,
      "count": 1,
      "max": [
        0
      ],
      "min": [
        0
      ],
      "type": "SCALAR"
    },
    {
      "bufferView": 4,
      "byteOffset": 18012,
      "componentType": 5126,
      "count": 1,
      "max": [
        1,
        1,
        1
      ],
      "min": [
        1,
        1,
        1
      ],
      "type": "VEC3"
    },
    {
      "bufferView": 3,
      "byteOffset": 9008,
      "componentType": 5126,
      "count": 1,
      "max": [
        0
      ],
      "min": [
        0
      ],
      "type": "SCALAR"
    },
    {
      "bufferView": 5,
      "byteOffset": 12000,
      "componentType": 5126,
      "count": 1,
      "max": [
        0,
        0,
        0,
        1
      ],
      "min": [
        0,
        0,
        0,
        1
      ],
      "type": "VEC4"
    }
  ],
  "animations": [
    {
      "channels": [
        {
          "sampler": 0,
          "target": {
            "node": 5,
            "path": "translation"
          }
        },
        {
          "sampler": 1,
          "target": {
            "node": 5,
            "path": "scale"
          }
        },
        {
          "sampler": 2,
          "target": {
            "node": 5,
            "path": "rotation"
          }
        },
        {
          "sampler": 3,
          "target": {
            "node": 6,
            "path": "translation"
          }
        },
        {
          "sampler": 4,
          "target": {
            "node": 6,
            "path": "scale"
          }
        },
        {
          "sampler": 5,
          "target": {
            "node": 6,
            "path": "rotation"
          }
        },
        {
          "sampler": 6,
          "target": {
            "node": 10,
            "path": "translation"
          }
        },
        {
          "sampler": 7,
          "target": {
            "node": 10,
            "path": "scale"
          }
        },
        {
          "sampler": 8,
          "target": {
            "node": 10,
            "path": "rotation"
          }
        },
        {
          "sampler": 9,
          "target": {
            "node": 12,
            "path": "translation"
          }
        },
        {
          "sampler": 10,
          "target": {
            "node": 12,
            "path": "scale"
          }
        },
        {
          "sampler": 11,
          "target": {
            "node": 12,
            "path": "rotation"
          }
        },
        {
          "sampler": 12,
          "target": {
            "node": 13,
            "path": "translation"
          }
        },
        {
          "sampler": 13,
          "target": {
            "node": 13,
            "path": "scale"
          }
        },
        {
          "sampler": 14,
          "target": {
            "node": 13,
            "path": "rotation"
          }
        },
        {
          "sampler": 15,
          "target": {
            "node": 4,
            "path": "translation"
          }
        },
        {
          "sampler": 16,
          "target": {
            "node": 4,
            "path": "scale"
          }
        },
        {
          "sampler": 17,
          "target": {
            "node": 4,
            "path": "rotation"
          }
        }
      ],
      "name": "Take 001",
      "samplers": [
        {
          "input": 12,
          "interpolation": "LINEAR",
          "output": 13
        },
        {
          "input": 14,
          "interpolation": "LINEAR",
          "output": 15
        },
        {
          "input": 16,
          "interpolation": "LINEAR",
          "output": 17
        },
        {
          "input": 18,
          "interpolation": "LINEAR",
          "output": 19
        },
        {
          "input": 20,
          "interpolation": "LINEAR",
          "output": 21
        },
        {
          "input": 22,
          "interpolation": "LINEAR",
          "output": 23
        },
        {
          "input": 24,
          "interpolation": "LINEAR",
          "output": 25
        },
        {
          "input": 26,
          "interpolation": "LINEAR",
          "output": 27
        },
        {
          "input": 28,
          "interpolation": "LINEAR",
          "output": 29
        },
        {
          "input": 30,
          "interpolation": "LINEAR",
          "output": 31
        },
        {
          "input": 32,
          "interpolation": "LINEAR",
          "output": 33
        },
        {
          "input": 34,
          "interpolation": "LINEAR",
          "output": 35
        },
        {
          "input": 36,
          "interpolation": "LINEAR",
          "output": 37
        },
        {
          "input": 38,
          "interpolation": "LINEAR",
          "output": 39
        },
        {
          "input": 40,
          "interpolation": "LINEAR",
          "output": 41
        },
        {
          "input": 42,
          "interpolation": "LINEAR",
          "output": 43
        },
        {
          "input": 44,
          "interpolation": "LINEAR",
          "output": 45
        },
        {
          "input": 46,
          "interpolation": "LINEAR",
          "output": 47
        }
      ]
    }
  ],
  "asset": {
    "extras": {
      "author": "gelmi.com.br (https://sketchfab.com/rodrigogelmi)",
      "license": "CC-BY-4.0 (http://creativecommons.org/licenses/by/4.0/)",
      "source": "https://sketchfab.com/3d-models/strawberry-dd6a424807614544835c8cc4529d6f0d",
      "title": "Strawberry"
    },
    "generator": "Sketchfab-8.55.0",
    "version": "2.0"
  },
  "bufferViews": [
    {
      "buffer": 0,
      "byteLength": 1944000,
      "byteOffset": 0,
      "name": "floatBufferViews",
      "target": 34963
    },
    {
      "buffer": 0,
      "byteLength": 1133784,
      "byteOffset": 1944000,
      "byteStride": 8,
      "name": "floatBufferViews",
      "target": 34962
    },
    {
      "buffer": 0,
      "byteLength": 3401352,
      "byteOffset": 3077784,
      "byteStride": 12,
      "name": "floatBufferViews",
      "target": 34962
    },
    {
      "buffer": 0,
      "byteLength": 9012,
      "byteOffset": 6479136,
      "name": "floatBufferViews"
    },
    {
      "buffer": 0,
      "byteLength": 18024,
      "byteOffset": 6488148,
      "byteStride": 12,
      "name": "floatBufferViews"
    },
    {
      "buffer": 0,
      "byteLength": 12016,
      "byteOffset": 6506172,
      "byteStride": 16,
      "name": "floatBufferViews"
    }
  ],
  "buffers": [
    {
      "byteLength": 6518188,
      "uri": "scene.bin"
    }
  ],
  "extensionsRequired": [
    "KHR_materials_pbrSpecularGlossiness"
  ],
  "extensionsUsed": [
    "KHR_materials_pbrSpecularGlossiness"
  ],
  "images": [
    {
      "uri": "textures/MORANGO_diffuse.jpeg"
    }
  ],
  "materials": [
    {
      "doubleSided": false,
      "emissiveFactor": [
        0,
        0,
        0
      ],
      "extensions": {
        "KHR_materials_pbrSpecularGlossiness": {
          "diffuseFactor": [
            1,
            1,
            1,
            1
          ],
          "diffuseTexture": {
            "index": 0,
            "texCoord": 0
          },
          "glossinessFactor": 0.49971575190461426,
          "specularFactor": [
            0.032110914518845499,
            0.032110914518845499,
            0.032110914518845499
          ]
        }
      },
      "name": "MORANGO"
    }
  ],
  "meshes": [
    {
      "primitives": [
        {
          "attributes": {
            "NORMAL": 1,
            "POSITION": 0,
            "TEXCOORD_0": 2
          },
          "indices": 3,
          "material": 0,
          "mode": 4
        }
      ]
    },
    {
      "primitives": [
        {
          "attributes": {
            "NORMAL": 5,
            "POSITION": 4,
            "TEXCOORD_0": 6
          },
          "indices": 7,
          "material": 0,
          "mode": 4
        }
      ]
    },
    {
      "primitives": [
        {
          "attributes": {
            "NORMAL": 9,
            "POSITION": 8,
            "TEXCOORD_0": 10
          },
          "indices": 11,
          "material": 0,
          "mode": 4
        }
      ]
    }
  ],
  "nodes": [
    {
      "children": [
        1
      ],
      "name": "RootNode (gltf orientation matrix)",
      "rotation": [
        -0.70710678118654746,
        -0,
        -0,
        0.70710678118654757
      ]
    },
    {
      "children": [
        2
      ],
      "matrix": [
        0.084351077675819397,
        2.5664340037057643e-18,
        -1.3319690833087252e-17,
        0,
        0,
        0.082827584194764547,
        0.015959192386563181,
        0,
        1.3564687628134984e-17,
        -0.015959192386563181,
        0.082827584194764547,
        0,
        -9.0205620750793969e-17,
        0.10659138113260269,
        -0.0029758177697658539,
        1
      ],
      "name": "RootNode (model correction matrix)"
    },
    {
      "children": [
        3
      ],
      "matrix": [
        1,
        0,
        0,
        0,
        0,
        0,
        1,
        0,
        0,
        -1,
        0,
        0,
        0,
        0,
        0,
        1
      ],
      "name": "166b9143dffb435bbcb1a7eda8b478f4.fbx"
    },
    {
      "children": [
        4
      ],
      "name": ""
    },
    {
      "children": [
        5,
        6,
        10,
        12,
        13
      ],
      "name": "RootNode"
    },
    {
      "name": "Texture Group"
    },
    {
      "children": [
        7,
        8,
        9
      ],
      "name": "Mesh"
    },
    {
      "mesh": 0,
      "name": ""
    },
    {
      "mesh": 1,
      "name": ""
    },
    {
      "mesh": 2,
      "name": ""
    },
    {
      "children": [
        11
      ],
      "name": "Camera",
      "rotation": [
        -0.11518403887748718,
        0.71901732683181763,
        -0.11507013440132141,
        0.67565208673477173
      ],
      "translation": [
        0.77574694156646729,
        5.0656108856201172,
        13.409460067749023
      ]
    },
    {
      "name": ""
    },
    {
      "name": "Texture Group (2)"
    },
    {
      "children": [
        14
      ],
      "name": "Directional Light",
      "rotation": [
        0.46193975210189819,
        -0.33141359686851501,
        0.19134171307086945,
        0.80010312795639038
      ],
      "translation": [
        -200,
        200,
        200
      ]
    },
    {
      "children": [
        15
      ],
      "matrix": [
        1,
        0,
        0,
        0,
        0,
        2.2204460492503131e-16,
        1,
        0,
        0,
        -1,
        2.2204460492503131e-16,
        0,
        0,
        0,
        0,
        1
      ],
      "name": ""
    },
    {
      "name": ""
    }
  ],
  "samplers": [
    {
      "magFilter": 9729,
      "minFilter": 9987,
      "wrapS": 10497,
      "wrapT": 10497
    }
  ],
  "scene": 0,
  "scenes": [
    {
      "name": "OSG_Scene",
      "nodes": [
        0
      ]
    }
  ],
  "textures": [
    {
      "sampler": 0,
      "source": 0
    }
  ]
}

