{
  "accessors": [
    {
      "bufferView": 2,
      "componentType": 5126,
      "count": 286,
      "max": [
        0.6968805193901062,
        0.52833020687103271,
        0.52604663372039795
      ],
      "min": [
        -0.6968805193901062,
        -0.52658754587173462,
        -0.5171358585357666
      ],
      "type": "VEC3"
    },
    {
      "bufferView": 2,
      "byteOffset": 3432,
      "componentType": 5126,
      "count": 286,
      "max": [
        0.99674141407012939,
        0.99462580680847168,
        0.99743330478668213
      ],
      "min": [
        -0.99674141407012939,
        -0.98262315988540649,
        -0.99531787633895874
      ],
      "type": "VEC3"
    },
    {
      "bufferView": 3,
      "componentType": 5126,
      "count": 286,
      "max": [
        0.46183797717094421,
        0.84838497638702393,
        0.99640679359436035,
        1
      ],
      "min": [
        -0.34208947420120239,
        -0.99987697601318359,
        -0.99997204542160034,
        1
      ],
      "type": "VEC4"
    },
    {
      "bufferView": 1,
      "componentType": 5126,
      "count": 286,
      "max": [
        0.99114644527435303,
        0.58904963731765747
      ],
      "min": [
        0.0088535994291305542,
        0.0088535994291305542
      ],
      "type": "VEC2"
    },
    {
      "bufferView": 1,
      "byteOffset": 2288,
      "componentType": 5126,
      "count": 286,
      "max": [
        0.99114644527435303,
        0.58904963731765747
      ],
      "min": [
        0.0088535994291305542,
        0.0088535994291305542
      ],
      "type": "VEC2"
    },
    {
      "bufferView": 1,
      "byteOffset": 4576,
      "componentType": 5126,
      "count": 286,
      "max": [
        0.99114644527435303,
        0.58904963731765747
      ],
      "min": [
        0.0088535994291305542,
        0.0088535994291305542
      ],
      "type": "VEC2"
    },
    {
      "bufferView": 0,
      "componentType": 5125,
      "count": 1356,
      "max": [
        285
      ],
      "min": [
        0
      ],
      "type": "SCALAR"
    }
  ],
  "asset": {
    "extras": {
      "author": "RPSebb (https://sketchfab.com/RPSebb)",
      "license": "CC-BY-4.0 (http://creativecommons.org/licenses/by/4.0/)",
      "source": "https://sketchfab.com/3d-models/watermelon-526d00c728a24311bfbec50bf54142ca",
      "title": "Watermelon"
    },
    "generator": "Sketchfab-7.67.0",
    "version": "2.0"
  },
  "bufferViews": [
    {
      "buffer": 0,
      "byteLength": 5424,
      "byteOffset": 0,
      "name": "floatBufferViews",
      "target": 34963
    },
    {
      "buffer": 0,
      "byteLength": 6864,
      "byteOffset": 5424,
      "byteStride": 8,
      "name": "floatBufferViews",
      "target": 34962
    },
    {
      "buffer": 0,
      "byteLength": 6864,
      "byteOffset": 12288,
      "byteStride": 12,
      "name": "floatBufferViews",
      "target": 34962
    },
    {
      "buffer": 0,
      "byteLength": 4576,
      "byteOffset": 19152,
      "byteStride": 16,
      "name": "floatBufferViews",
      "target": 34962
    }
  ],
  "buffers": [
    {
      "byteLength": 23728,
      "uri": "scene.bin"
    }
  ],
  "images": [
    {
      "uri": "textures/WaterMelon_Baked_baseColor.png"
    },
    {
      "uri": "textures/WaterMelon_Baked_metallicRoughness.png"
    },
    {
      "uri": "textures/WaterMelon_Baked_normal.png"
    }
  ],
  "materials": [
    {
      "doubleSided": true,
      "name": "WaterMelon_Baked",
      "normalTexture": {
        "index": 2,
        "scale": 1,
        "texCoord": 0
      },
      "pbrMetallicRoughness": {
        "baseColorFactor": [
          1,
          1,
          1,
          1
        ],
        "baseColorTexture": {
          "index": 0,
          "texCoord": 0
        },
        "metallicFactor": 0,
        "metallicRoughnessTexture": {
          "index": 1,
          "texCoord": 0
        },
        "roughnessFactor": 1
      }
    }
  ],
  "meshes": [
    {
      "name": "WaterMelon low.002_WaterMelon Baked_0",
      "primitives": [
        {
          "attributes": {
            "NORMAL": 1,
            "POSITION": 0,
            "TANGENT": 2,
            "TEXCOORD_0": 3,
            "TEXCOORD_1": 4,
            "TEXCOORD_2": 5
          },
          "indices": 6,
          "material": 0,
          "mode": 4
        }
      ]
    }
  ],
  "nodes": [
    {
      "children": [
        1
      ],
      "name": "RootNode (gltf orientation matrix)",
      "rotation": [
        -0.70710678118654746,
        -0,
        -0,
        0.70710678118654757
      ]
    },
    {
      "children": [
        2
      ],
      "name": "RootNode (model correction matrix)"
    },
    {
      "children": [
        3
      ],
      "matrix": [
        1,
        0,
        0,
        0,
        0,
        0,
        1,
        0,
        0,
        -1,
        0,
        0,
        0,
        0,
        0,
        1
      ],
      "name": "32ddb79be5ec4f7793034978a46a8da7.fbx"
    },
    {
      "children": [
        4
      ],
      "name": "RootNode"
    },
    {
      "children": [
        5
      ],
      "matrix": [
        100,
        0,
        0,
        0,
        -0,
        -1.6292067939183141e-05,
        -99.999999999998678,
        0,
        0,
        99.999999999998678,
        -1.6292067939183141e-05,
        0,
        -144.15939331054688,
        0,
        0,
        1
      ],
      "name": "WaterMelon low.002"
    },
    {
      "mesh": 0,
      "name": "WaterMelon low.002_WaterMelon Baked_0"
    }
  ],
  "samplers": [
    {
      "magFilter": 9729,
      "minFilter": 9987,
      "wrapS": 10497,
      "wrapT": 10497
    }
  ],
  "scene": 0,
  "scenes": [
    {
      "name": "OSG_Scene",
      "nodes": [
        0
      ]
    }
  ],
  "textures": [
    {
      "sampler": 0,
      "source": 0
    },
    {
      "sampler": 0,
      "source": 1
    },
    {
      "sampler": 0,
      "source": 2
    }
  ]
}

