{
  "accessors": [
    {
      "bufferView": 2,
      "componentType": 5126,
      "count": 383,
      "max": [
        17.559013366699219,
        23.219978332519531,
        6.0848002433776855
      ],
      "min": [
        -12.867859840393066,
        -17.046871185302734,
        -6.0847983360290527
      ],
      "type": "VEC3"
    },
    {
      "bufferView": 2,
      "byteOffset": 4596,
      "componentType": 5126,
      "count": 383,
      "max": [
        0.99664491415023804,
        0.96434628963470459,
        0.99135833978652954
      ],
      "min": [
        -0.99992400407791138,
        -0.99564141035079956,
        -0.99135839939117432
      ],
      "type": "VEC3"
    },
    {
      "bufferView": 3,
      "componentType": 5126,
      "count": 383,
      "max": [
        0.94420051574707031,
        0.94412314891815186,
        0.99954259395599365,
        1
      ],
      "min": [
        -0.96126782894134521,
        -0.99901992082595825,
        -0.99911046028137207,
        1
      ],
      "type": "VEC4"
    },
    {
      "bufferView": 1,
      "componentType": 5126,
      "count": 383,
      "max": [
        0.96546018123626709,
        0.97679734230041504
      ],
      "min": [
        0.022990306839346886,
        0.023202648386359215
      ],
      "type": "VEC2"
    },
    {
      "bufferView": 1,
      "byteOffset": 3064,
      "componentType": 5126,
      "count": 383,
      "max": [
        0.96546018123626709,
        0.97679734230041504
      ],
      "min": [
        0.022990306839346886,
        0.023202648386359215
      ],
      "type": "VEC2"
    },
    {
      "bufferView": 1,
      "byteOffset": 6128,
      "componentType": 5126,
      "count": 383,
      "max": [
        0.96546018123626709,
        0.97679734230041504
      ],
      "min": [
        0.022990306839346886,
        0.023202648386359215
      ],
      "type": "VEC2"
    },
    {
      "bufferView": 1,
      "byteOffset": 9192,
      "componentType": 5126,
      "count": 383,
      "max": [
        0.96546018123626709,
        0.97679734230041504
      ],
      "min": [
        0.022990306839346886,
        0.023202648386359215
      ],
      "type": "VEC2"
    },
    {
      "bufferView": 1,
      "byteOffset": 12256,
      "componentType": 5126,
      "count": 383,
      "max": [
        0.96546018123626709,
        0.97679734230041504
      ],
      "min": [
        0.022990306839346886,
        0.023202648386359215
      ],
      "type": "VEC2"
    },
    {
      "bufferView": 1,
      "byteOffset": 15320,
      "componentType": 5126,
      "count": 383,
      "max": [
        0.96546018123626709,
        0.97679734230041504
      ],
      "min": [
        0.022990306839346886,
        0.023202648386359215
      ],
      "type": "VEC2"
    },
    {
      "bufferView": 1,
      "byteOffset": 18384,
      "componentType": 5126,
      "count": 383,
      "max": [
        0.96546018123626709,
        0.97679734230041504
      ],
      "min": [
        0.022990306839346886,
        0.023202648386359215
      ],
      "type": "VEC2"
    },
    {
      "bufferView": 1,
      "byteOffset": 21448,
      "componentType": 5126,
      "count": 383,
      "max": [
        0.96546018123626709,
        0.97679734230041504
      ],
      "min": [
        0.022990306839346886,
        0.023202648386359215
      ],
      "type": "VEC2"
    },
    {
      "bufferView": 1,
      "byteOffset": 24512,
      "componentType": 5126,
      "count": 383,
      "max": [
        0.96546018123626709,
        0.97679734230041504
      ],
      "min": [
        0.022990306839346886,
        0.023202648386359215
      ],
      "type": "VEC2"
    },
    {
      "bufferView": 1,
      "byteOffset": 27576,
      "componentType": 5126,
      "count": 383,
      "max": [
        0.96546018123626709,
        0.97679734230041504
      ],
      "min": [
        0.022990306839346886,
        0.023202648386359215
      ],
      "type": "VEC2"
    },
    {
      "bufferView": 0,
      "componentType": 5125,
      "count": 1956,
      "max": [
        382
      ],
      "min": [
        0
      ],
      "type": "SCALAR"
    }
  ],
  "asset": {
    "extras": {
      "author": "bariacg (https://sketchfab.com/bariacg)",
      "license": "CC-BY-NC-4.0 (http://creativecommons.org/licenses/by-nc/4.0/)",
      "source": "https://sketchfab.com/3d-models/banana-c6f67e740d3242ef97f4e7a8d338de2c",
      "title": "Banana"
    },
    "generator": "Sketchfab-7.37.0",
    "version": "2.0"
  },
  "bufferViews": [
    {
      "buffer": 0,
      "byteLength": 7824,
      "byteOffset": 0,
      "name": "floatBufferViews",
      "target": 34963
    },
    {
      "buffer": 0,
      "byteLength": 30640,
      "byteOffset": 7824,
      "byteStride": 8,
      "name": "floatBufferViews",
      "target": 34962
    },
    {
      "buffer": 0,
      "byteLength": 9192,
      "byteOffset": 38464,
      "byteStride": 12,
      "name": "floatBufferViews",
      "target": 34962
    },
    {
      "buffer": 0,
      "byteLength": 6128,
      "byteOffset": 47656,
      "byteStride": 16,
      "name": "floatBufferViews",
      "target": 34962
    }
  ],
  "buffers": [
    {
      "byteLength": 53784,
      "uri": "scene.bin"
    }
  ],
  "images": [
    {
      "uri": "textures/Banana_baseColor.png"
    },
    {
      "uri": "textures/Banana_metallicRoughness.png"
    },
    {
      "uri": "textures/Banana_normal.png"
    }
  ],
  "materials": [
    {
      "doubleSided": true,
      "emissiveFactor": [
        0,
        0,
        0
      ],
      "name": "Banana",
      "normalTexture": {
        "index": 2,
        "scale": 1,
        "texCoord": 0
      },
      "pbrMetallicRoughness": {
        "baseColorFactor": [
          1,
          1,
          1,
          1
        ],
        "baseColorTexture": {
          "index": 0,
          "texCoord": 0
        },
        "metallicFactor": 0,
        "metallicRoughnessTexture": {
          "index": 1,
          "texCoord": 0
        },
        "roughnessFactor": 1
      }
    }
  ],
  "meshes": [
    {
      "name": "Banana_Banana_0",
      "primitives": [
        {
          "attributes": {
            "NORMAL": 1,
            "POSITION": 0,
            "TANGENT": 2,
            "TEXCOORD_0": 3,
            "TEXCOORD_1": 4,
            "TEXCOORD_2": 5,
            "TEXCOORD_3": 6,
            "TEXCOORD_4": 7,
            "TEXCOORD_5": 8,
            "TEXCOORD_6": 9,
            "TEXCOORD_7": 10,
            "TEXCOORD_8": 11,
            "TEXCOORD_9": 12
          },
          "indices": 13,
          "material": 0,
          "mode": 4
        }
      ]
    }
  ],
  "nodes": [
    {
      "children": [
        1
      ],
      "name": "RootNode (gltf orientation matrix)",
      "rotation": [
        -0.70710678118654746,
        -0,
        -0,
        0.70710678118654757
      ]
    },
    {
      "children": [
        2
      ],
      "name": "RootNode (model correction matrix)"
    },
    {
      "children": [
        3
      ],
      "matrix": [
        1,
        0,
        0,
        0,
        0,
        0,
        1,
        0,
        0,
        -1,
        0,
        0,
        0,
        0,
        0,
        1
      ],
      "name": "6e19f76207804602b6f3f0dc71ab301a.fbx"
    },
    {
      "children": [
        4
      ],
      "name": "RootNode"
    },
    {
      "children": [
        5
      ],
      "matrix": [
        2.5399999618530273,
        0,
        0,
        0,
        0,
        2.5399999618529936,
        4.1381852677223203e-07,
        0,
        0,
        -4.1381852677223203e-07,
        2.5399999618529936,
        0,
        0,
        0,
        0,
        1
      ],
      "name": "Banana"
    },
    {
      "mesh": 0,
      "name": "Banana_Banana_0"
    }
  ],
  "samplers": [
    {
      "magFilter": 9729,
      "minFilter": 9987,
      "wrapS": 10497,
      "wrapT": 10497
    }
  ],
  "scene": 0,
  "scenes": [
    {
      "name": "OSG_Scene",
      "nodes": [
        0
      ]
    }
  ],
  "textures": [
    {
      "sampler": 0,
      "source": 0
    },
    {
      "sampler": 0,
      "source": 1
    },
    {
      "sampler": 0,
      "source": 2
    }
  ]
}

